<?xml version="1.0" standalone="no"?>
<!DOCTYPE svg PUBLIC "-//W3C//DTD SVG 20010904//EN"
 "http://www.w3.org/TR/2001/REC-SVG-20010904/DTD/svg10.dtd">
<svg version="1.0" xmlns="http://www.w3.org/2000/svg"
 width="451.000000pt" height="451.000000pt" viewBox="0 0 451.000000 451.000000"
 preserveAspectRatio="xMidYMid meet">
<metadata>
Created by potrace 1.14, written by Peter Selinger 2001-2017
</metadata>
<g transform="translate(0.000000,451.000000) scale(0.100000,-0.100000)"
fill="#000000" stroke="none">
<path d="M1105 4330 c-4 -6 -13 -9 -21 -6 -7 3 -16 1 -19 -4 -3 -6 -30 -21
-58 -34 -29 -13 -66 -39 -83 -57 -47 -52 -94 -86 -135 -99 -26 -9 -43 -24 -60
-54 -28 -50 -35 -59 -78 -101 l-33 -32 15 -49 c9 -27 16 -67 16 -89 0 -22 3
-51 6 -65 7 -28 14 -222 19 -470 2 -91 4 -165 6 -165 1 0 3 -36 4 -80 1 -44 8
-89 14 -101 6 -12 10 -63 9 -127 -2 -59 1 -107 6 -107 5 0 7 -9 4 -20 -3 -10
1 -24 8 -30 12 -10 15 -65 4 -85 -5 -9 -5 -28 1 -40 5 -12 3 -72 -3 -90 -14
-43 -17 -119 -5 -126 15 -9 17 -276 4 -323 -6 -19 -5 -27 1 -23 6 4 9 -45 7
-136 -2 -78 -3 -151 -2 -162 1 -11 1 -132 1 -270 -1 -137 -1 -275 -1 -305 0
-30 0 -79 -1 -107 -1 -29 3 -53 8 -53 18 0 38 -173 22 -195 -9 -12 -6 -237 4
-280 3 -16 8 -74 9 -128 2 -99 6 -109 49 -144 8 -6 24 -9 35 -6 12 3 35 -2 53
-11 45 -23 52 -21 76 20 20 36 21 37 38 17 17 -20 18 -20 66 -3 28 10 51 14
55 9 3 -5 16 -6 30 -3 13 3 30 1 38 -5 22 -19 146 -11 173 11 9 7 18 5 29 -6
12 -12 20 -14 29 -6 9 8 24 7 53 -3 24 -9 44 -11 50 -5 5 5 14 3 21 -6 16 -19
48 -3 86 42 15 18 30 30 35 27 4 -3 35 20 68 49 62 55 99 75 111 60 10 -15 59
-16 83 -2 24 13 46 19 63 19 28 -1 65 -10 86 -22 25 -14 31 -16 54 -18 8 0 25
-12 39 -26 15 -15 36 -25 54 -25 21 0 35 -8 46 -25 21 -32 74 -65 92 -58 7 2
33 -7 57 -22 72 -41 105 -48 130 -25 13 13 28 18 44 14 13 -4 36 -1 51 5 15 7
48 13 73 14 25 2 56 11 69 20 14 9 32 17 41 17 17 0 79 62 79 80 0 6 12 10 28
9 15 -1 39 3 53 9 15 6 30 8 33 5 3 -4 6 -1 6 5 0 7 7 12 15 12 8 0 15 5 15
10 0 6 10 10 21 10 31 0 157 39 164 50 11 17 39 10 63 -15 25 -26 43 -26 104
-3 37 14 68 2 68 -27 0 -18 8 -26 38 -36 20 -6 42 -15 47 -19 6 -4 46 -6 90
-4 44 2 92 3 108 4 15 0 27 3 28 7 0 5 3 17 5 28 3 11 7 38 11 60 3 22 10 46
16 53 7 9 7 16 -1 24 -9 9 -7 17 6 32 9 11 11 16 5 12 -17 -9 -17 6 -1 23 10
11 10 13 1 7 -8 -4 -13 -2 -13 6 0 8 6 20 13 27 8 10 9 12 0 7 -7 -4 -17 2
-22 13 -14 26 -14 34 1 25 7 -5 8 -3 3 6 -12 19 -21 273 -10 290 3 6 3 10 -2
10 -4 0 -8 11 -8 25 0 14 3 25 6 25 3 0 5 23 4 50 -1 42 1 50 14 45 12 -4 11
-1 -3 9 -10 9 -15 20 -10 27 4 8 3 10 -4 5 -8 -5 -12 1 -12 18 0 14 -5 28 -10
31 -8 5 -8 11 -1 19 6 7 9 15 6 18 -4 4 -15 104 -18 178 -1 19 -6 38 -11 41
-13 10 -11 106 2 122 7 8 8 17 3 23 -10 9 -14 51 -12 117 1 27 5 36 13 31 6
-4 5 2 -3 13 -10 15 -14 44 -12 100 3 129 13 265 20 276 3 5 1 7 -4 4 -6 -4
-13 4 -15 18 -4 18 -1 25 11 25 12 0 13 2 3 9 -10 6 -12 27 -7 87 3 43 5 89 5
102 0 16 4 21 13 16 9 -5 9 -4 0 7 -15 15 -17 49 -4 49 5 0 8 8 7 18 0 10 5
16 14 14 11 -3 11 0 -3 15 -13 15 -14 22 -5 31 7 7 8 12 4 12 -5 0 -3 7 4 15
7 8 14 32 17 52 3 21 10 44 17 52 8 11 8 13 -1 8 -9 -6 -10 -1 -2 21 10 29 8
62 -4 92 -4 8 -6 40 -5 70 1 52 -19 210 -28 219 -2 2 1 10 6 17 8 9 6 12 -7
10 -13 -1 -18 6 -18 27 1 15 -2 27 -5 27 -11 0 -9 44 3 59 10 12 9 13 -1 7 -9
-6 -11 -1 -8 18 3 14 0 28 -5 32 -5 3 -7 10 -4 15 4 5 0 9 -7 9 -9 0 -9 3 -2
8 12 8 16 102 4 102 -4 0 -11 8 -15 18 -11 24 -16 112 -7 112 5 0 8 12 7 28 0
15 4 30 10 34 6 5 6 8 -2 8 -7 0 -10 14 -8 36 2 20 0 46 -4 57 -6 15 -3 26 8
35 9 7 11 11 4 8 -18 -10 -26 13 -11 31 9 12 9 15 1 9 -8 -4 -13 -1 -14 8 -2
24 -4 30 -11 41 -10 16 -13 159 -4 174 7 10 6 12 -4 6 -10 -6 -12 -4 -7 8 9
23 -1 45 -25 58 -16 8 -23 8 -29 -2 -7 -12 -12 -12 -29 -1 -11 7 -24 10 -29 8
-5 -3 -7 6 -5 19 1 14 -2 23 -7 19 -5 -3 -7 -10 -4 -15 10 -15 -11 -10 -25 5
-6 8 -18 12 -26 9 -9 -3 -14 1 -14 13 0 11 -3 15 -8 8 -6 -10 -18 -10 -92 0
-14 2 -24 7 -23 12 1 5 -15 10 -35 10 -24 1 -42 9 -54 24 -10 13 -24 20 -33
16 -8 -3 -15 -2 -15 3 0 4 -11 13 -25 19 -30 14 -36 15 -33 5 3 -7 -7 -15 -14
-12 -22 6 -38 5 -38 -3 0 -6 -10 1 -21 16 -12 15 -24 25 -27 22 -3 -3 -12 0
-20 7 -13 9 -14 9 -8 0 8 -15 -3 -17 -23 -4 -8 5 -24 6 -35 2 -30 -11 -50 -3
-36 14 7 9 -4 6 -29 -6 -31 -15 -46 -17 -61 -9 -10 6 -23 10 -27 9 -20 -3 -27
2 -13 11 12 8 9 10 -10 8 -16 -2 -24 2 -22 10 2 14 -34 17 -42 3 -3 -5 -21 -9
-38 -10 -18 0 -46 -2 -63 -5 -16 -2 -34 -4 -38 -5 -5 -1 -5 -6 -1 -13 5 -8 0
-9 -17 -4 -41 12 -54 14 -64 8 -18 -11 -50 -10 -64 2 -12 9 -13 8 -6 -3 6 -11
2 -13 -18 -9 -15 3 -28 1 -29 -4 -2 -5 -17 1 -33 14 -17 12 -24 15 -18 7 17
-21 6 -30 -23 -19 -13 5 -42 8 -64 6 -25 -3 -46 1 -54 9 -8 8 -16 11 -20 8 -3
-4 -13 2 -21 13 -11 14 -14 15 -9 3 7 -22 -9 -31 -59 -35 -36 -3 -70 -27 -79
-55 -2 -6 -10 -11 -18 -13 -8 -2 -24 -7 -34 -11 -13 -6 -21 -4 -24 4 -3 9 -7
9 -18 0 -11 -9 -14 -8 -14 2 0 11 -2 11 -8 1 -5 -7 -18 -14 -31 -17 -12 -2
-19 0 -16 6 4 5 -2 10 -12 10 -10 1 -29 3 -43 5 -14 1 -42 4 -62 5 -21 1 -38
6 -38 10 0 4 -12 11 -28 17 -21 7 -31 6 -41 -5 -10 -11 -15 -12 -21 -3 -6 9
-9 9 -11 1 -3 -8 -12 -4 -26 9 -13 11 -36 20 -54 20 -24 0 -30 4 -25 16 3 8 2
12 -4 9 -6 -3 -10 -2 -10 4 0 5 -9 8 -20 6 -11 -2 -25 4 -32 14 -13 18 -21 19
-72 6 -21 -6 -27 -5 -22 3 5 8 1 10 -9 5 -10 -3 -21 0 -26 8 -4 8 -14 14 -21
15 -7 0 -21 2 -32 2 -15 2 -16 5 -6 17 11 13 8 15 -13 15 -14 0 -29 -4 -32
-10 -3 -5 -15 -10 -26 -10 -11 0 -18 4 -15 9 7 11 -13 9 -32 -3 -7 -4 -19 -3
-27 4 -10 8 -15 8 -20 0z"/>
<path d="M1293 4325 c0 -8 4 -12 9 -9 5 3 6 10 3 15 -9 13 -12 11 -12 -6z"/>
<path d="M2756 4312 c-3 -5 1 -9 9 -9 8 0 12 4 9 9 -3 4 -7 8 -9 8 -2 0 -6 -4
-9 -8z"/>
<path d="M1530 4276 c0 -2 7 -7 16 -10 8 -3 12 -2 9 4 -6 10 -25 14 -25 6z"/>
<path d="M2887 4249 c7 -7 15 -10 18 -7 3 3 -2 9 -12 12 -14 6 -15 5 -6 -5z"/>
<path d="M3796 3103 c-6 -14 -5 -15 5 -6 7 7 10 15 7 18 -3 3 -9 -2 -12 -12z"/>
<path d="M3855 2779 c-4 -6 -5 -12 -2 -15 2 -3 7 2 10 11 7 17 1 20 -8 4z"/>
<path d="M3796 2232 c-3 -5 1 -9 9 -9 8 0 12 4 9 9 -3 4 -7 8 -9 8 -2 0 -6 -4
-9 -8z"/>
<path d="M3855 631 c-3 -5 -2 -12 3 -15 5 -3 9 1 9 9 0 17 -3 19 -12 6z"/>
</g>
</svg>
