<?xml version="1.0" standalone="no"?>
<!DOCTYPE svg PUBLIC "-//W3C//DTD SVG 20010904//EN"
 "http://www.w3.org/TR/2001/REC-SVG-20010904/DTD/svg10.dtd">
<svg version="1.0" xmlns="http://www.w3.org/2000/svg"
 width="451.000000pt" height="451.000000pt" viewBox="0 0 451.000000 451.000000"
 preserveAspectRatio="xMidYMid meet">
<metadata>
Created by potrace 1.14, written by Peter Selinger 2001-2017
</metadata>
<g transform="translate(0.000000,451.000000) scale(0.100000,-0.100000)"
fill="#000000" stroke="none">
<path d="M1139 4359 c-52 -8 -154 -67 -206 -119 -27 -26 -63 -55 -80 -64 -18
-9 -49 -28 -70 -42 -29 -20 -32 -25 -13 -19 56 17 70 26 131 83 92 86 148 111
256 116 71 4 95 1 132 -16 26 -11 57 -25 71 -30 14 -6 32 -14 41 -18 9 -5 21
-4 27 2 7 7 26 2 62 -16 28 -14 63 -26 76 -26 13 0 24 -4 24 -8 0 -14 48 -33
55 -22 9 15 62 12 79 -5 8 -8 20 -15 27 -15 7 0 21 -8 31 -17 18 -16 18 -16
12 0 -5 14 0 17 29 17 20 0 39 -5 42 -10 4 -7 35 -9 80 -6 77 4 119 24 128 58
5 16 3 16 -19 1 -18 -12 -40 -14 -91 -10 -95 9 -189 23 -204 32 -6 5 -31 7
-55 7 -41 -2 -87 14 -188 63 -32 16 -57 22 -77 18 -20 -4 -46 3 -86 23 -59 30
-129 37 -214 23z"/>
<path d="M2750 4299 c-136 -27 -423 -39 -474 -19 -34 12 -128 -8 -163 -35
l-26 -22 34 2 c19 0 43 6 54 12 14 8 27 8 45 0 38 -16 232 -24 315 -12 22 3
58 7 80 10 22 2 53 8 69 15 22 8 31 8 36 -1 5 -8 16 -6 38 5 30 15 32 15 58
-9 24 -22 36 -25 98 -25 91 0 116 -2 110 -12 -6 -10 10 -11 19 -2 4 4 20 8 36
9 23 2 32 -2 37 -17 4 -15 12 -19 30 -15 14 2 27 0 30 -5 3 -5 14 -2 24 7 18
16 20 16 41 -4 13 -12 27 -21 33 -21 5 0 18 -8 28 -17 10 -9 26 -17 36 -19 42
-5 82 -17 82 -25 0 -5 8 -9 18 -9 9 0 26 -7 36 -15 27 -21 39 -19 26 4 -9 19
-9 19 23 4 17 -9 39 -22 47 -29 8 -7 37 -15 64 -18 27 -3 51 -8 53 -10 2 -2 7
-48 10 -102 3 -55 9 -106 14 -115 19 -37 29 -238 16 -312 -9 -49 -8 -63 5 -85
14 -23 27 -114 30 -202 1 -38 19 -134 28 -145 17 -23 34 -136 31 -215 -1 -25
3 -67 8 -93 5 -27 5 -67 0 -94 -5 -27 -11 -63 -14 -81 -2 -18 -8 -39 -12 -45
-12 -16 -33 -105 -33 -137 2 -125 -12 -576 -18 -580 -9 -6 -8 -20 3 -145 5
-49 9 -124 10 -165 1 -72 14 -200 36 -361 9 -63 12 -137 7 -194 -3 -40 15
-337 23 -367 5 -20 8 -48 5 -61 -2 -13 -7 -55 -11 -93 -12 -109 -16 -115 -70
-107 -32 4 -45 2 -45 -7 0 -8 -13 -10 -42 -6 -24 3 -49 5 -55 5 -7 1 -13 9
-13 19 0 13 -2 14 -9 3 -7 -11 -15 -11 -45 -1 -21 7 -40 10 -42 7 -3 -3 12
-11 33 -17 21 -7 43 -16 48 -20 10 -6 75 -14 105 -12 70 6 115 19 125 37 6 11
18 31 27 45 27 42 43 187 28 262 -7 35 -14 161 -15 288 -2 157 -10 277 -25
395 -24 188 -30 500 -19 915 6 204 10 235 35 330 25 92 28 120 26 229 -2 138
-14 227 -42 317 -10 35 -21 112 -25 180 -4 65 -12 128 -18 139 -6 12 -12 92
-13 190 -1 95 -6 186 -13 205 -6 19 -14 78 -17 130 -6 106 -13 118 -71 130
-21 4 -60 17 -88 29 -27 11 -85 27 -127 36 -43 9 -84 22 -90 28 -26 25 -90 47
-134 47 -25 0 -59 7 -76 16 -20 10 -73 18 -152 23 -90 5 -128 11 -146 24 -26
18 -41 19 -110 6z"/>
<path d="M663 3990 c-56 -63 -55 -72 2 -14 25 25 45 49 45 55 0 13 -1 12 -47
-41z"/>
<path d="M661 3644 c0 -11 3 -14 6 -6 3 7 2 16 -1 19 -3 4 -6 -2 -5 -13z"/>
<path d="M661 3554 c0 -11 3 -14 6 -6 3 7 2 16 -1 19 -3 4 -6 -2 -5 -13z"/>
<path d="M671 3514 c0 -11 3 -14 6 -6 3 7 2 16 -1 19 -3 4 -6 -2 -5 -13z"/>
<path d="M668 3460 c2 -16 6 -30 8 -30 2 0 4 14 4 30 0 17 -4 30 -8 30 -5 0
-7 -13 -4 -30z"/>
<path d="M669 3359 c-2 -48 3 -104 9 -111 4 -4 6 22 5 58 -1 63 -12 103 -14
53z"/>
<path d="M2155 3233 c-206 -28 -389 -117 -538 -262 -258 -250 -348 -612 -240
-956 137 -434 579 -710 1028 -642 206 32 378 119 526 266 269 270 348 649 209
1010 -77 198 -253 391 -450 491 -149 76 -374 115 -535 93z m192 -32 c41 -19
133 -105 133 -124 0 -5 -14 -7 -30 -3 -70 13 -221 17 -299 7 -47 -6 -87 -9
-89 -6 -12 12 73 96 120 119 61 31 108 33 165 7z m-242 -43 c-28 -29 -58 -62
-66 -74 -8 -12 -47 -31 -99 -48 -47 -16 -102 -37 -122 -47 -21 -11 -38 -15
-38 -10 0 15 114 114 174 150 52 31 167 79 192 80 6 1 -12 -23 -41 -51z m421
-4 c68 -32 109 -61 165 -113 l74 -71 -54 24 c-29 14 -87 35 -128 47 -60 19
-77 29 -93 55 -11 17 -40 50 -65 73 -42 38 -43 41 -17 35 15 -3 68 -26 118
-50z m-585 -11 c-36 -22 -98 -75 -144 -123 -45 -47 -107 -103 -137 -126 -81
-60 -191 -183 -234 -261 -43 -79 -38 -50 9 53 93 203 262 368 472 460 101 44
113 43 34 -3z m734 -19 c176 -85 328 -236 413 -407 50 -102 64 -152 20 -73
-38 70 -158 200 -231 253 -29 20 -88 73 -132 118 -44 44 -109 100 -145 124
-78 51 -48 46 75 -15z m-250 -65 l76 -12 23 -46 c13 -25 35 -78 49 -116 l25
-71 -76 15 c-103 19 -401 19 -503 0 l-76 -15 22 66 c12 36 34 88 48 117 26 51
27 51 89 61 89 14 234 14 323 1z m-438 -76 c-13 -26 -32 -73 -42 -103 -10 -30
-21 -59 -25 -63 -4 -5 -48 -22 -96 -39 -49 -16 -117 -44 -151 -63 -35 -18 -63
-31 -63 -28 0 2 15 37 34 78 53 115 87 157 153 192 57 31 204 85 211 78 2 -1
-8 -25 -21 -52z m719 -8 c39 -17 80 -42 92 -55 21 -23 92 -151 111 -203 l11
-27 -60 30 c-33 17 -100 44 -148 60 -48 16 -90 35 -94 42 -4 7 -23 54 -43 103
-20 50 -38 96 -41 102 -8 17 80 -9 172 -52z m311 -235 c53 -63 134 -215 148
-275 6 -27 3 -25 -23 15 -33 52 -122 143 -163 167 -18 11 -37 39 -55 82 -15
36 -41 91 -58 121 l-31 55 64 -50 c35 -27 88 -79 118 -115z m-1349 115 c-11
-20 -35 -70 -54 -113 -27 -62 -44 -86 -87 -122 -61 -51 -104 -98 -136 -150
l-22 -35 7 30 c12 55 80 189 129 254 38 49 167 171 182 171 1 0 -7 -16 -19
-35z m857 -46 c33 -6 65 -17 72 -23 12 -11 57 -215 49 -223 -2 -3 -53 0 -112
6 -59 6 -178 11 -264 11 -86 0 -205 -5 -264 -11 -59 -6 -110 -9 -112 -6 -8 7
37 222 48 228 6 4 42 12 82 18 39 6 82 13 96 15 48 9 345 -2 405 -15z m-616
-51 c-5 -18 -14 -60 -19 -93 -19 -111 -21 -115 -40 -115 -15 0 -193 -44 -269
-66 -23 -7 -24 -6 -17 32 4 21 14 62 22 91 15 51 16 52 100 93 64 32 180 77
231 90 1 0 -3 -15 -8 -32z m886 -29 c123 -52 139 -67 158 -147 22 -91 22 -106
0 -97 -31 12 -244 65 -264 65 -11 0 -20 9 -23 23 -2 12 -13 65 -23 118 l-19
97 51 -15 c27 -8 82 -28 120 -44z m305 -223 c40 -54 62 -95 75 -136 7 -23 5
-22 -34 13 -23 21 -66 49 -95 64 -53 25 -53 26 -65 87 -6 33 -14 72 -18 86 -6
23 -2 21 46 -19 29 -25 70 -67 91 -95z m-1547 40 c-17 -78 -17 -78 -65 -102
-27 -14 -67 -41 -90 -62 -38 -34 -40 -35 -33 -12 18 59 65 130 128 193 38 38
70 67 73 65 2 -3 -4 -39 -13 -82z m1002 3 c50 -6 92 -13 95 -16 3 -2 7 -82 8
-176 4 -177 -4 -324 -17 -346 -13 -21 -145 -33 -371 -33 -208 0 -354 12 -371
29 -23 23 -30 505 -8 527 23 23 509 34 664 15z m-693 -206 c-2 -104 1 -222 6
-263 5 -41 9 -76 8 -77 -1 -1 -42 7 -91 17 -106 22 -225 58 -225 68 0 4 -4 54
-10 112 -5 58 -6 138 -2 179 l7 74 55 19 c60 21 203 56 235 57 19 1 20 -4 17
-186z m910 172 c40 -9 103 -25 140 -37 l67 -21 7 -75 c6 -74 0 -205 -14 -272
-7 -32 -12 -36 -67 -53 -57 -17 -238 -58 -242 -54 -1 1 3 38 8 82 6 44 9 162
7 263 -2 136 0 182 9 182 6 0 45 -7 85 -15z m-1242 -197 c0 -68 3 -147 7 -176
l6 -54 -50 26 c-126 64 -169 138 -123 214 18 29 130 112 152 112 4 0 8 -55 8
-122z m1558 82 c119 -76 133 -157 41 -234 -34 -29 -128 -80 -135 -73 -2 2 0
48 6 103 6 54 7 132 4 172 -8 87 -4 89 84 32z m-1599 -305 c50 -23 61 -34 67
-59 4 -17 17 -61 29 -98 l23 -68 -45 33 c-67 48 -137 129 -172 198 -40 80 -39
94 4 55 19 -18 62 -45 94 -61z m1662 10 c-36 -73 -106 -154 -176 -204 -39 -28
-47 -31 -43 -15 3 10 16 54 29 98 l24 78 65 33 c36 18 79 46 95 61 17 16 32
25 34 21 2 -5 -11 -37 -28 -72z m-1367 -104 c80 -16 92 -21 98 -42 34 -119 53
-219 42 -219 -20 0 -185 60 -236 86 -27 14 -54 36 -62 53 -11 21 -56 163 -56
177 0 1 28 -7 61 -17 34 -11 103 -28 153 -38z m-293 -61 c27 -25 66 -57 88
-70 24 -15 47 -40 57 -63 10 -22 37 -68 60 -103 23 -35 39 -64 35 -64 -4 0
-43 29 -88 65 -107 86 -204 214 -244 323 -9 24 -7 24 18 -8 14 -19 48 -55 74
-80z m1464 88 c-4 -13 -9 -32 -11 -43 -3 -11 -15 -46 -26 -78 -18 -51 -26 -61
-67 -81 -50 -26 -215 -86 -235 -86 -8 0 -5 29 12 103 33 140 36 147 69 148 16
0 75 13 133 28 135 36 133 36 125 9z m185 -3 c-52 -136 -183 -291 -325 -381
-32 -21 -31 -18 15 51 15 22 39 63 54 92 14 29 36 58 48 64 47 24 144 109 177
153 19 25 36 46 38 46 1 0 -2 -11 -7 -25z m-945 -61 c146 -4 268 -2 334 5 57
6 106 9 108 7 6 -5 -45 -217 -56 -234 -4 -7 -50 -20 -102 -28 -107 -18 -378
-15 -466 6 -50 11 -52 13 -67 58 -13 40 -46 182 -46 199 0 3 15 2 33 -1 17 -4
136 -9 262 -12z m-645 -197 c36 -38 103 -94 150 -125 47 -30 105 -74 130 -98
25 -23 70 -59 100 -79 68 -45 35 -38 -77 17 -150 74 -301 217 -379 358 -14 25
-17 34 -7 20 10 -14 47 -56 83 -93z m1514 71 c-92 -161 -277 -320 -456 -391
-88 -36 -93 -34 -25 7 31 19 83 56 114 83 32 27 97 75 144 106 49 32 115 88
155 131 71 76 81 85 68 64z m-1304 -62 c47 -20 109 -41 138 -47 28 -7 52 -18
52 -25 0 -7 19 -51 43 -98 27 -54 39 -86 31 -86 -30 0 -209 71 -231 92 -51 48
-161 218 -133 205 8 -3 53 -22 100 -41z m1099 2 c-12 -24 -45 -75 -74 -114
-53 -70 -56 -72 -142 -104 -48 -17 -100 -34 -114 -37 l-26 -5 44 89 c23 48 43
93 43 98 0 6 30 18 68 28 37 10 101 33 142 51 41 19 76 34 78 35 1 1 -7 -18
-19 -41z m-749 -89 c101 -12 317 -6 404 11 27 6 51 8 54 5 3 -2 -15 -44 -39
-92 -58 -117 -61 -118 -259 -118 -191 0 -200 4 -251 100 -20 39 -40 81 -44 94
-6 21 -5 23 16 18 13 -3 67 -11 119 -18z m-162 -165 c40 -13 78 -24 85 -24 7
-1 38 -26 70 -56 52 -49 56 -54 30 -48 -50 12 -127 45 -178 76 -57 35 -130 96
-100 84 11 -5 53 -19 93 -32z m742 32 c0 -8 -123 -93 -165 -114 -22 -11 -63
-27 -92 -35 l-51 -15 51 50 c45 43 64 53 136 74 46 14 91 29 100 34 19 11 21
12 21 6z m-420 -80 c69 0 139 3 155 8 l30 7 -35 -36 c-42 -45 -102 -75 -150
-75 -55 0 -127 40 -169 93 -13 17 -12 18 15 10 16 -4 85 -7 154 -7z"/>
<path d="M676 3215 c-3 -9 -6 -22 -5 -28 0 -7 5 -1 10 12 5 13 8 26 5 28 -2 2
-6 -3 -10 -12z"/>
<path d="M681 3054 c0 -11 3 -14 6 -6 3 7 2 16 -1 19 -3 4 -6 -2 -5 -13z"/>
<path d="M686 3015 c4 -8 8 -15 10 -15 2 0 4 7 4 15 0 8 -4 15 -10 15 -5 0 -7
-7 -4 -15z"/>
<path d="M687 2965 c-4 -9 -1 -26 5 -38 l13 -22 3 22 c2 12 -1 30 -6 39 -8 15
-10 15 -15 -1z"/>
<path d="M704 2761 c0 -39 5 -72 12 -78 8 -9 10 6 6 60 -6 94 -17 105 -18 18z"/>
<path d="M720 2655 c0 -15 18 -40 24 -34 3 3 -1 14 -9 25 -8 10 -14 15 -15 9z"/>
<path d="M730 2592 c0 -11 4 -23 8 -26 10 -6 9 30 -1 40 -4 4 -7 -2 -7 -14z"/>
<path d="M721 2540 c0 -8 4 -24 9 -35 l9 -20 0 20 c0 11 -4 27 -9 35 -9 13
-10 13 -9 0z"/>
<path d="M726 2472 c-2 -4 -1 -14 5 -22 7 -12 9 -10 9 8 0 23 -5 28 -14 14z"/>
<path d="M716 2363 c-4 -34 -3 -60 4 -67 5 -5 10 -20 10 -32 0 -13 4 -26 10
-29 6 -4 7 12 3 42 -3 26 -6 69 -7 95 -1 65 -12 60 -20 -9z"/>
<path d="M738 2190 c2 -16 6 -30 8 -30 2 0 4 14 4 30 0 17 -4 30 -8 30 -5 0
-7 -13 -4 -30z"/>
<path d="M737 2143 c-9 -8 -8 -63 2 -87 7 -19 8 -19 15 0 4 10 3 20 -1 21 -5
2 -7 19 -5 38 4 35 2 41 -11 28z"/>
<path d="M726 1984 c-7 -19 3 -84 13 -84 4 0 8 20 9 45 2 45 -11 68 -22 39z"/>
<path d="M735 1870 c3 -5 8 -10 11 -10 2 0 4 5 4 10 0 6 -5 10 -11 10 -5 0 -7
-4 -4 -10z"/>
<path d="M742 1793 c-1 -17 -5 -40 -8 -50 -5 -17 -5 -17 6 0 6 9 9 32 7 50
l-4 32 -1 -32z"/>
<path d="M727 1694 c-2 -15 -1 -38 3 -53 7 -21 8 -16 9 27 1 56 -4 67 -12 26z"/>
<path d="M742 1580 c0 -14 2 -19 5 -12 2 6 2 18 0 25 -3 6 -5 1 -5 -13z"/>
<path d="M742 1510 c0 -14 2 -19 5 -12 2 6 2 18 0 25 -3 6 -5 1 -5 -13z"/>
<path d="M733 1244 c-2 -19 2 -34 7 -34 12 0 14 57 3 63 -5 3 -9 -10 -10 -29z"/>
<path d="M729 1129 c-1 -30 -1 -58 0 -62 1 -5 2 -28 3 -52 1 -24 5 -42 9 -39
8 5 4 192 -5 201 -3 3 -7 -18 -7 -48z"/>
<path d="M731 945 c0 -11 6 -29 14 -39 15 -20 15 -20 15 0 0 11 -7 29 -15 40
-14 19 -14 19 -14 -1z"/>
<path d="M750 811 c0 -6 5 -13 10 -16 6 -3 10 1 10 9 0 9 -4 16 -10 16 -5 0
-10 -4 -10 -9z"/>
<path d="M755 718 c-3 -7 -1 -26 4 -43 9 -29 9 -29 10 13 1 41 -5 54 -14 30z"/>
<path d="M750 616 c0 -9 5 -16 10 -16 6 0 10 4 10 9 0 6 -4 13 -10 16 -5 3
-10 -1 -10 -9z"/>
<path d="M752 564 c-1 -15 2 -22 8 -19 12 7 13 32 2 39 -4 2 -9 -7 -10 -20z"/>
<path d="M3265 420 c-3 -5 -24 -15 -45 -21 -22 -7 -40 -16 -40 -20 0 -9 67 17
87 33 7 6 22 8 33 5 11 -3 18 -1 14 4 -7 12 -41 12 -49 -1z"/>
<path d="M3460 403 c8 -3 22 -11 30 -17 13 -10 13 -9 1 7 -7 9 -21 17 -30 16
-13 0 -14 -1 -1 -6z"/>
<path d="M3332 384 c11 -11 21 -12 39 -5 13 5 20 10 14 11 -71 9 -69 10 -53
-6z"/>
<path d="M3410 390 c-8 -5 -10 -10 -5 -10 6 0 17 5 25 10 8 5 11 10 5 10 -5 0
-17 -5 -25 -10z"/>
<path d="M1957 370 c-39 -15 -54 -16 -73 -8 -31 15 -62 0 -131 -64 -28 -26
-58 -48 -67 -48 -8 0 -25 -13 -39 -30 -14 -16 -37 -32 -51 -36 -14 -3 -26 -10
-26 -16 0 -18 45 3 75 36 17 18 44 38 62 45 17 7 48 31 69 54 36 41 39 42 95
40 34 -1 73 4 93 12 42 18 104 11 156 -17 19 -10 40 -18 46 -18 6 0 19 -9 29
-20 10 -11 31 -20 46 -20 15 0 34 -8 41 -18 28 -37 80 -73 99 -67 12 4 37 -5
67 -23 63 -38 105 -48 122 -27 7 9 28 15 51 15 21 0 40 3 42 8 11 16 -82 6
-101 -11 -13 -12 -22 -15 -27 -7 -3 5 -10 8 -14 5 -5 -2 -28 6 -52 20 -57 32
-58 32 -101 39 -25 5 -44 17 -61 39 -13 17 -42 38 -63 46 -21 7 -46 19 -54 26
-17 14 -70 34 -120 45 -19 4 -42 10 -50 13 -8 3 -37 -2 -63 -13z"/>
<path d="M3115 373 c-24 -5 -75 -42 -59 -43 6 0 17 7 24 15 7 8 23 15 36 15
13 0 24 5 24 10 0 6 -1 9 -2 9 -2 -1 -12 -4 -23 -6z"/>
<path d="M3000 328 c-14 -6 -33 -11 -44 -12 -10 -1 -30 -17 -44 -36 l-25 -35
32 33 c18 18 37 30 42 27 11 -8 79 16 79 27 0 10 -9 9 -40 -4z"/>
<path d="M2818 223 c-10 -2 -18 -9 -18 -14 0 -5 -15 -9 -32 -9 -18 0 -39 -4
-47 -9 -10 -6 -1 -9 27 -7 23 1 47 7 54 14 7 7 20 12 30 12 10 0 18 5 18 10 0
10 -3 11 -32 3z"/>
<path d="M780 210 c0 -5 9 -14 20 -20 11 -6 20 -9 20 -8 0 2 -9 11 -20 21 -11
9 -20 13 -20 7z"/>
<path d="M1082 208 c-7 -7 -18 -13 -25 -13 -7 0 -13 -4 -13 -10 -1 -5 3 -8 10
-6 6 3 21 5 34 5 24 1 26 4 14 23 -6 10 -11 10 -20 1z"/>
<path d="M1110 211 c0 -13 39 -21 70 -14 19 3 29 0 33 -10 4 -11 17 -14 49
-11 70 5 118 16 124 26 3 5 14 2 24 -7 12 -10 24 -14 32 -9 15 9 55 6 79 -6
17 -9 48 5 36 16 -6 6 -87 14 -157 15 -33 1 -100 -14 -100 -22 0 -10 -56 -2
-87 13 -12 6 -31 8 -42 5 -12 -3 -24 -1 -27 4 -7 12 -34 12 -34 0z"/>
<path d="M990 199 c0 -18 -42 -50 -58 -44 -12 4 -12 3 -3 -9 12 -14 41 -12 41
3 0 3 11 19 25 34 19 20 22 27 10 27 -8 0 -15 -5 -15 -11z"/>
<path d="M853 183 c-36 -7 -27 -21 12 -20 27 1 32 4 23 14 -6 7 -11 12 -12 12
0 -1 -11 -4 -23 -6z"/>
</g>
</svg>
